- 
http://www.Speed.Cd
 
http://www.Speed.Cd       the fast  and The Hottest Private Tracker on the net

Please Seed back to make the speed Faster!!
 ............ NFO .............
-[IMG]http://i.imgur.com/ayQTRQb.jpg[/IMG]

Sources: Video - PrekrasHye.s0zdaHija.2013.D.TS.1400MB ... Audio - TommyCooks Amped Up BoomBoom. - Thanks To Both.

Ok, Pretty decent video here, all i did to it was resize to correct AR, mess with sat, brightness, contrast and sharpen, Audio is all there is for now so until some line appears enjoy the cam. yes it has its flaws, noise, rustling, low voices etc. but audio seems improved, you have been warned.
 
http://www.imdb.com/title/tt1559547

Ethan longs to escape his small Southern town. He meets a mysterious new girl, Lena. Together, they uncover dark secrets about their respective families, their history and their town.

General
Complete name                            : Beautiful Creatures 2013 CAM x264 AAC-OFFLiNE.mp4
Format                                   : MPEG-4
Format profile                           : Base Media
Codec ID                                 : isom
File size                                : 1.39 GiB
Duration                                 : 1h 57mn
Overall bit rate mode                    : Variable
Overall bit rate                         : 1 699 Kbps
Encoded date                             : UTC 2013-02-24 03:03:21
Tagged date                              : UTC 2013-02-24 03:03:21

Video
ID                                       : 1
Format                                   : AVC
Format/Info                              : Advanced Video Codec
Format profile                           : High@L4.1
Format settings, CABAC                   : Yes
Format settings, ReFrames                : 3 frames
Codec ID                                 : avc1
Codec ID/Info                            : Advanced Video Coding
Duration                                 : 1h 57mn
Bit rate mode                            : Variable
Bit rate                                 : 1 553 Kbps
Maximum bit rate                         : 40.0 Mbps
Width                                    : 720 pixels
Height                                   : 288 pixels
Display aspect ratio                     : 2.500
Frame rate mode                          : Constant
Frame rate                               : 25.000 fps
Color space                              : YUV
Chroma subsampling                       : 4:2:0
Bit depth                                : 8 bits
Scan type                                : Progressive
Bits/(Pixel*Frame)                       : 0.300
Stream size                              : 1.27 GiB (91%)
Writing library                          : x264 core 129 r2245 bc13772

Audio
ID                                       : 2
Format                                   : AAC
Format/Info                              : Advanced Audio Codec
Format profile                           : LC
Codec ID                                 : 40
Duration                                 : 1h 57mn
Bit rate mode                            : Variable
Bit rate                                 : 144 Kbps
Maximum bit rate                         : 185 Kbps
Channel(s)                               : 2 channels
Channel positions                        : Front: L R
Sampling rate                            : 48.0 KHz
Compression mode                         : Lossy
Stream size                              : 119 MiB (8%)
Language                                 : English
Encoded date                             : UTC 2013-02-24 02:52:19
Tagged date                              : UTC 2013-02-24 03:03:54

[img]http://i.imgur.com/7mizyk4.png[/img]
[img]http://i.imgur.com/LmFd0zP.png[/img]
[img]http://i.imgur.com/qjpldlA.png[/img]
[img]http://i.imgur.com/Q7zdpyM.png[/img]
[img]http://i.imgur.com/1Q1nOYF.png[/img]
[img]http://i.imgur.com/HoqyRZj.png[/img]
[img]http://i.imgur.com/0J6cSv3.png[/img]
[img]http://i.imgur.com/BN8CvYA.png[/img]
[img]http://i.imgur.com/LyrOAWk.png[/img]
[img]http://i.imgur.com/14iltc2.png[/img]

Greets: To Our Friends